<svg width="256" height="256" viewBox="0 0 256 256" fill="none" xmlns="http://www.w3.org/2000/svg">
  <path d="M80 60H142C154.15 60 164 69.8497 164 82V144C164 156.15 154.15 166 142 166H80C67.8497 166 58 156.15 58 144V82C58 69.8497 67.8497 60 80 60Z" fill="#075DF6"/>
  <path d="M90 70H152C164.15 70 174 79.8497 174 92V154C174 166.15 164.15 176 152 176H90C77.8497 176 68 166.15 68 154V92C68 79.8497 77.8497 70 90 70Z" fill="#3F85FF" fill-opacity="0.52"/>
  <path d="M84 67H146C157.598 67 167 76.402 167 88V150C167 161.598 157.598 171 146 171H84C72.402 171 63 161.598 63 150V88C63 76.402 72.402 67 84 67Z" fill="#075DF6" stroke="#D9E8FF" stroke-width="10"/>
  <circle cx="96" cy="98" r="12" fill="white"/>
  <path d="M82 146L106.235 121.765C112.483 115.517 122.642 115.545 128.856 121.828L167 160.407V150C167 161.598 157.598 171 146 171H84C72.402 171 63 161.598 63 150V146H82Z" fill="white"/>
  <path d="M93 190H162C176.912 190 189 177.912 189 163V93" stroke="#075DF6" stroke-width="12" stroke-linecap="round"/>
  <path d="M116 214H174C197.196 214 216 195.196 216 172V116" stroke="#075DF6" stroke-opacity="0.44" stroke-width="12" stroke-linecap="round"/>
</svg>
